<svg width="1388" height="300" viewBox="0 0 1388 300" fill="none" xmlns="http://www.w3.org/2000/svg">
<path d="M4 30C1.49803 30 -0.00195312 31.5 1.94212e-06 34V267C-0.000975336 269.5 1.49902 271 4 271H64C66.499 271 68 269.5 68 267V138H125L220 30H131L68 108V35C67.999 31.5 66.499 30 63 30H4Z" fill="#A4D624"/>
<path d="M111.499 191H192.998C192.998 183 174.498 153 145.498 153H100.998C69.998 153 81.9982 191 111.499 191Z" fill="#A4D624"/>
<path d="M82.998 184.5C85.0188 188 94.498 198 110.498 198H191.998C206.998 198 217.998 198 217.998 223.5V266C217.998 269.5 216.498 271 212.998 271H137.998C106.498 271 82.998 252 82.998 217V184.5ZM180.998 221.5C173.542 221.5 167.498 227.544 167.498 235C167.498 242.456 173.542 248.5 180.998 248.5C188.454 248.5 194.498 242.456 194.498 235C194.498 227.544 188.454 221.5 180.998 221.5Z" fill="#A4D624"/>
<path d="M345.8 220L298.6 158V220H264.4V79.6H298.6V141.2L345.4 79.6H385.6L331.2 148.4L387.6 220H345.8ZM397.053 164C397.053 152.533 399.186 142.467 403.453 133.8C407.853 125.133 413.786 118.467 421.253 113.8C428.72 109.133 437.053 106.8 446.253 106.8C454.12 106.8 460.986 108.4 466.853 111.6C472.853 114.8 477.453 119 480.653 124.2V108.4H514.853V220H480.653V204.2C477.32 209.4 472.653 213.6 466.653 216.8C460.786 220 453.92 221.6 446.053 221.6C436.986 221.6 428.72 219.267 421.253 214.6C413.786 209.8 407.853 203.067 403.453 194.4C399.186 185.6 397.053 175.467 397.053 164ZM480.653 164.2C480.653 155.667 478.253 148.933 473.453 144C468.786 139.067 463.053 136.6 456.253 136.6C449.453 136.6 443.653 139.067 438.853 144C434.186 148.8 431.853 155.467 431.853 164C431.853 172.533 434.186 179.333 438.853 184.4C443.653 189.333 449.453 191.8 456.253 191.8C463.053 191.8 468.786 189.333 473.453 184.4C478.253 179.467 480.653 172.733 480.653 164.2ZM607.595 107.2C620.662 107.2 631.062 111.467 638.795 120C646.662 128.4 650.595 140 650.595 154.8V220H616.595V159.4C616.595 151.933 614.662 146.133 610.795 142C606.929 137.867 601.729 135.8 595.195 135.8C588.662 135.8 583.462 137.867 579.595 142C575.729 146.133 573.795 151.933 573.795 159.4V220H539.595V108.4H573.795V123.2C577.262 118.267 581.929 114.4 587.795 111.6C593.662 108.667 600.262 107.2 607.595 107.2ZM736.561 191V220H719.161C706.761 220 697.094 217 690.161 211C683.228 204.867 679.761 194.933 679.761 181.2V136.8H666.161V108.4H679.761V81.2H713.961V108.4H736.361V136.8H713.961V181.6C713.961 184.933 714.761 187.333 716.361 188.8C717.961 190.267 720.628 191 724.361 191H736.561ZM806.411 221.6C795.478 221.6 785.611 219.267 776.811 214.6C768.144 209.933 761.278 203.267 756.211 194.6C751.278 185.933 748.811 175.8 748.811 164.2C748.811 152.733 751.344 142.667 756.411 134C761.478 125.2 768.411 118.467 777.211 113.8C786.011 109.133 795.878 106.8 806.811 106.8C817.744 106.8 827.611 109.133 836.411 113.8C845.211 118.467 852.144 125.2 857.211 134C862.278 142.667 864.811 152.733 864.811 164.2C864.811 175.667 862.211 185.8 857.011 194.6C851.944 203.267 844.944 209.933 836.011 214.6C827.211 219.267 817.344 221.6 806.411 221.6ZM806.411 192C812.944 192 818.478 189.6 823.011 184.8C827.678 180 830.011 173.133 830.011 164.2C830.011 155.267 827.744 148.4 823.211 143.6C818.811 138.8 813.344 136.4 806.811 136.4C800.144 136.4 794.611 138.8 790.211 143.6C785.811 148.267 783.611 155.133 783.611 164.2C783.611 173.133 785.744 180 790.011 184.8C794.411 189.6 799.878 192 806.411 192ZM950.955 107.2C964.021 107.2 974.421 111.467 982.155 120C990.021 128.4 993.955 140 993.955 154.8V220H959.955V159.4C959.955 151.933 958.021 146.133 954.155 142C950.288 137.867 945.088 135.8 938.555 135.8C932.021 135.8 926.821 137.867 922.955 142C919.088 146.133 917.155 151.933 917.155 159.4V220H882.955V108.4H917.155V123.2C920.621 118.267 925.288 114.4 931.155 111.6C937.021 108.667 943.621 107.2 950.955 107.2ZM1060.12 106.8C1067.99 106.8 1074.85 108.4 1080.72 111.6C1086.72 114.8 1091.32 119 1094.52 124.2V108.4H1128.72V219.8C1128.72 230.067 1126.65 239.333 1122.52 247.6C1118.52 256 1112.32 262.667 1103.92 267.6C1095.65 272.533 1085.32 275 1072.92 275C1056.39 275 1042.99 271.067 1032.72 263.2C1022.45 255.467 1016.59 244.933 1015.12 231.6H1048.92C1049.99 235.867 1052.52 239.2 1056.52 241.6C1060.52 244.133 1065.45 245.4 1071.32 245.4C1078.39 245.4 1083.99 243.333 1088.12 239.2C1092.39 235.2 1094.52 228.733 1094.52 219.8V204C1091.19 209.2 1086.59 213.467 1080.72 216.8C1074.85 220 1067.99 221.6 1060.12 221.6C1050.92 221.6 1042.59 219.267 1035.12 214.6C1027.65 209.8 1021.72 203.067 1017.32 194.4C1013.05 185.6 1010.92 175.467 1010.92 164C1010.92 152.533 1013.05 142.467 1017.32 133.8C1021.72 125.133 1027.65 118.467 1035.12 113.8C1042.59 109.133 1050.92 106.8 1060.12 106.8ZM1094.52 164.2C1094.52 155.667 1092.12 148.933 1087.32 144C1082.65 139.067 1076.92 136.6 1070.12 136.6C1063.32 136.6 1057.52 139.067 1052.72 144C1048.05 148.8 1045.72 155.467 1045.72 164C1045.72 172.533 1048.05 179.333 1052.72 184.4C1057.52 189.333 1063.32 191.8 1070.12 191.8C1076.92 191.8 1082.65 189.333 1087.32 184.4C1092.12 179.467 1094.52 172.733 1094.52 164.2ZM1258.66 162.4C1258.66 165.6 1258.46 168.933 1258.06 172.4H1180.66C1181.2 179.333 1183.4 184.667 1187.26 188.4C1191.26 192 1196.13 193.8 1201.86 193.8C1210.4 193.8 1216.33 190.2 1219.66 183H1256.06C1254.2 190.333 1250.8 196.933 1245.86 202.8C1241.06 208.667 1235 213.267 1227.66 216.6C1220.33 219.933 1212.13 221.6 1203.06 221.6C1192.13 221.6 1182.4 219.267 1173.86 214.6C1165.33 209.933 1158.66 203.267 1153.86 194.6C1149.06 185.933 1146.66 175.8 1146.66 164.2C1146.66 152.6 1149 142.467 1153.66 133.8C1158.46 125.133 1165.13 118.467 1173.66 113.8C1182.2 109.133 1192 106.8 1203.06 106.8C1213.86 106.8 1223.46 109.067 1231.86 113.6C1240.26 118.133 1246.8 124.6 1251.46 133C1256.26 141.4 1258.66 151.2 1258.66 162.4ZM1223.66 153.4C1223.66 147.533 1221.66 142.867 1217.66 139.4C1213.66 135.933 1208.66 134.2 1202.66 134.2C1196.93 134.2 1192.06 135.867 1188.06 139.2C1184.2 142.533 1181.8 147.267 1180.86 153.4H1223.66ZM1344.9 220L1310.9 173.2V220H1276.7V72H1310.9V153.8L1344.7 108.4H1386.9L1340.5 164.4L1387.3 220H1344.9Z" fill="white"/>
</svg>
