<svg width="220" height="241" viewBox="0 0 220 241" fill="none" xmlns="http://www.w3.org/2000/svg">
<path d="M4 0C1.49803 7.62939e-06 -0.00195312 1.50001 1.94212e-06 4V237C-0.000975336 239.5 1.49902 241 4 241H64C66.499 241 68 239.5 68 237V108H125L220 0H131L68 78V5C67.999 1.5 66.499 0 63 0H4Z" fill="#A4D624"/>
<path d="M111.499 161H192.998C192.998 153 174.498 123 145.498 123H100.998C69.998 123 81.9982 161 111.499 161Z" fill="#A4D624"/>
<path d="M82.998 154.5C85.0188 158 94.498 168 110.498 168H191.998C206.998 168 217.998 168 217.998 193.5V236C217.998 239.5 216.498 241 212.998 241H137.998C106.498 241 82.998 222 82.998 187V154.5ZM180.998 191.5C173.542 191.5 167.498 197.544 167.498 205C167.498 212.456 173.542 218.5 180.998 218.5C188.454 218.5 194.498 212.456 194.498 205C194.498 197.544 188.454 191.5 180.998 191.5Z" fill="#A4D624"/>
</svg>
